<svg width="24" height="24" viewBox="0 0 24 24" fill="none" xmlns="http://www.w3.org/2000/svg">
<path d="M12.0048 6.60928C9.02354 6.60928 6.61885 9.01396 6.61885 11.9952C6.61885 14.9765 9.02354 17.3812 12.0048 17.3812C14.986 17.3812 17.3907 14.9765 17.3907 11.9952C17.3907 9.01396 14.986 6.60928 12.0048 6.60928ZM12.0048 15.4968C10.0782 15.4968 8.50322 13.9265 8.50322 11.9952C8.50322 10.064 10.0735 8.49365 12.0048 8.49365C13.936 8.49365 15.5063 10.064 15.5063 11.9952C15.5063 13.9265 13.9313 15.4968 12.0048 15.4968ZM18.8673 6.38896C18.8673 7.0874 18.3048 7.64522 17.611 7.64522C16.9126 7.64522 16.3548 7.08271 16.3548 6.38896C16.3548 5.69521 16.9173 5.13271 17.611 5.13271C18.3048 5.13271 18.8673 5.69521 18.8673 6.38896ZM22.4345 7.66396C22.3548 5.98115 21.9704 4.49053 20.7376 3.2624C19.5095 2.03428 18.0188 1.6499 16.336 1.56553C14.6017 1.46709 9.40322 1.46709 7.66885 1.56553C5.99072 1.64521 4.5001 2.02959 3.26729 3.25771C2.03447 4.48584 1.65479 5.97646 1.57041 7.65928C1.47197 9.39365 1.47197 14.5921 1.57041 16.3265C1.6501 18.0093 2.03447 19.4999 3.26729 20.728C4.5001 21.9562 5.98604 22.3405 7.66885 22.4249C9.40322 22.5233 14.6017 22.5233 16.336 22.4249C18.0188 22.3452 19.5095 21.9608 20.7376 20.728C21.9657 19.4999 22.3501 18.0093 22.4345 16.3265C22.5329 14.5921 22.5329 9.39834 22.4345 7.66396ZM20.1938 18.1874C19.8282 19.1062 19.1204 19.814 18.197 20.1843C16.8142 20.7327 13.5329 20.6062 12.0048 20.6062C10.4767 20.6062 7.19072 20.728 5.8126 20.1843C4.89385 19.8187 4.18604 19.1108 3.81572 18.1874C3.26729 16.8046 3.39385 13.5233 3.39385 11.9952C3.39385 10.4671 3.27197 7.18115 3.81572 5.80303C4.18135 4.88428 4.88916 4.17646 5.8126 3.80615C7.19541 3.25771 10.4767 3.38428 12.0048 3.38428C13.5329 3.38428 16.8188 3.2624 18.197 3.80615C19.1157 4.17178 19.8235 4.87959 20.1938 5.80303C20.7423 7.18584 20.6157 10.4671 20.6157 11.9952C20.6157 13.5233 20.7423 16.8093 20.1938 18.1874Z" fill="#1E90FF"/>
</svg>
