<svg width="24" height="24" viewBox="0 0 24 24" fill="none" xmlns="http://www.w3.org/2000/svg">
<path d="M21.0001 11.9999C21.0001 12.1988 20.9211 12.3896 20.7804 12.5303C20.6398 12.6709 20.449 12.7499 20.2501 12.7499H10.5001C10.3012 12.7499 10.1104 12.6709 9.96977 12.5303C9.82912 12.3896 9.7501 12.1988 9.7501 11.9999C9.7501 11.801 9.82912 11.6103 9.96977 11.4696C10.1104 11.3289 10.3012 11.2499 10.5001 11.2499H20.2501C20.449 11.2499 20.6398 11.3289 20.7804 11.4696C20.9211 11.6103 21.0001 11.801 21.0001 11.9999ZM10.5001 6.74993H20.2501C20.449 6.74993 20.6398 6.67091 20.7804 6.53026C20.9211 6.38961 21.0001 6.19884 21.0001 5.99993C21.0001 5.80102 20.9211 5.61025 20.7804 5.4696C20.6398 5.32895 20.449 5.24993 20.2501 5.24993H10.5001C10.3012 5.24993 10.1104 5.32895 9.96977 5.4696C9.82912 5.61025 9.7501 5.80102 9.7501 5.99993C9.7501 6.19884 9.82912 6.38961 9.96977 6.53026C10.1104 6.67091 10.3012 6.74993 10.5001 6.74993ZM20.2501 17.2499H3.7501C3.55119 17.2499 3.36042 17.3289 3.21977 17.4696C3.07912 17.6103 3.0001 17.801 3.0001 17.9999C3.0001 18.1988 3.07912 18.3896 3.21977 18.5303C3.36042 18.6709 3.55119 18.7499 3.7501 18.7499H20.2501C20.449 18.7499 20.6398 18.6709 20.7804 18.5303C20.9211 18.3896 21.0001 18.1988 21.0001 17.9999C21.0001 17.801 20.9211 17.6103 20.7804 17.4696C20.6398 17.3289 20.449 17.2499 20.2501 17.2499ZM6.7501 13.4999C6.89852 13.5 7.04364 13.4561 7.16709 13.3737C7.29053 13.2913 7.38675 13.1741 7.44357 13.037C7.50038 12.8999 7.51524 12.749 7.48625 12.6034C7.45726 12.4579 7.38574 12.3242 7.28073 12.2193L4.06041 8.99993L7.28073 5.78055C7.42146 5.63982 7.50052 5.44895 7.50052 5.24993C7.50052 5.05091 7.42146 4.86003 7.28073 4.7193C7.14 4.57857 6.94912 4.49951 6.7501 4.49951C6.55108 4.49951 6.36021 4.57857 6.21948 4.7193L2.46948 8.4693C2.39974 8.53896 2.34442 8.62168 2.30668 8.71272C2.26894 8.80377 2.24951 8.90137 2.24951 8.99993C2.24951 9.09849 2.26894 9.19609 2.30668 9.28713C2.34442 9.37818 2.39974 9.4609 2.46948 9.53055L6.21948 13.2806C6.28918 13.3502 6.37192 13.4054 6.46296 13.443C6.55401 13.4807 6.65158 13.5 6.7501 13.4999Z" fill="#1E90FF"/>
</svg>
